<?xml version="1.0" encoding="UTF-8"?>
<svg viewBox="0 0 194.22093 184.72707" xmlns="http://www.w3.org/2000/svg">
 <g transform="translate(-252.71 -390.96)">
  <path transform="matrix(2.2115 .03886 -.03886 2.2115 -385.88 -623.3)" d="m369.21 535.67-27.378-13.792-26.883 14.735 4.6566-30.3-22.321-21.014 30.256-4.9346 13.088-27.722 14.043 27.251 30.409 3.8806-21.577 21.776z" fill="#fc0"/>
  <path d="m380.03 451.38-30.72 41.819 97.411-31.899z" fill="#ffe680"/>
  <path d="m349.81 492.31v51.942l-60.63 31.117z" fill="#fd5"/>
  <path d="m349.81 492.31 59.613 81.476-11.189-65.984z" fill="#fd5"/>
  <path d="m253.1 461.37 96.715 30.942-29.882-40.842z" fill="#ffe680"/>
  <path d="m349.81 492.31v-101.22l29.83 60.357z" fill="#fd5"/>
  <path d="m289.8 574.53 11.261-66.541 48.757-15.679z" fill="#ffd42a"/>
 </g>
</svg>
